<svg width="255" height="315" viewBox="0 0 255 315" fill="none" xmlns="http://www.w3.org/2000/svg">
<path d="M170.333 0.999996L164.61 13.8772C161.955 19.8515 162.387 26.7465 165.768 32.3423L172.273 43.109C173.943 45.8736 174.919 49.0016 175.117 52.2255L177.457 90.3404C177.966 98.6219 183.535 105.729 191.454 108.204L219.266 116.895C223.693 118.279 227.502 121.158 230.04 125.04L237.126 135.878C240.821 141.528 247.115 144.933 253.866 144.933L255 144.933" stroke="#71F909" stroke-width="3"/>
<path d="M0.999999 70.1224L2.94995 71.4237C8.91458 75.4042 16.8224 74.8168 22.1335 69.9987V69.9987C24.6442 67.721 27.8273 66.321 31.2029 66.0098L41.9192 65.0217C50.6723 64.2147 57.8724 57.7871 59.6635 49.1812L63.4776 30.8543C64.2841 26.9793 66.2222 23.4307 69.0465 20.6578L72.7057 17.0653C76.5362 13.3046 78.6941 8.16187 78.6941 2.79381L78.6941 1.4978" stroke="#71F909" stroke-width="3"/>
<path d="M135.575 313.271L141.01 305.977C146.971 297.976 146.124 286.805 139.024 279.795L133.559 274.401C130.257 271.14 128.191 266.833 127.716 262.216L124.441 230.401C123.533 221.581 116.927 214.412 108.211 212.788L52.5174 202.406C48.8547 201.724 45.4556 200.031 42.7031 197.52L25.7259 182.033C22.0415 178.671 17.2341 176.808 12.2468 176.808L1.00002 176.808" stroke="#71F909" stroke-width="3"/>
<path d="M187.267 1.4978L183.509 9.9819C180.869 15.9415 181.299 22.8134 184.661 28.3974L188.323 34.4796C189.985 37.2391 190.955 40.3591 191.152 43.5742L192.801 70.516C193.307 78.7919 198.867 85.8972 206.779 88.3781L225.039 94.1041C229.469 95.4932 233.277 98.3799 235.811 102.269L240.217 109.031C243.474 114.029 249.035 117.043 255 117.043V117.043" stroke="#71F909" stroke-width="3"/>
<path d="M1 44.2768L2.23659 45.0957C5.98279 47.5765 10.9327 47.2095 14.2721 44.2033V44.2033C15.8524 42.7807 17.8505 41.9073 19.968 41.7136L22.6788 41.4656C30.5718 40.7434 37.0697 34.9557 38.6966 27.1985L39.9702 21.1262C40.6583 17.8452 42.3082 14.8436 44.7094 12.5043L45.482 11.7516C48.2479 9.05697 49.8078 5.35927 49.8078 1.4978V1.4978" stroke="#71F909" stroke-width="3"/>
<path d="M108.839 313.271L111.313 309.913C117.184 301.946 116.346 290.884 109.343 283.893L108.175 282.728C104.912 279.47 102.874 275.186 102.407 270.599L100.202 248.939C99.3048 240.125 92.7156 232.952 84.0092 231.311L43.4305 223.663C39.7458 222.968 36.3306 221.252 33.5745 218.71L21.9691 208.005C18.2752 204.598 13.4341 202.706 8.40885 202.706L1.00002 202.706" stroke="#71F909" stroke-width="3"/>
<path d="M149.888 1.4978L142.734 17.5166C140.057 23.5114 140.492 30.4384 143.899 36.0507L152.469 50.1666C154.151 52.9383 155.135 56.0774 155.334 59.3137L158.181 105.449C158.692 113.738 164.273 120.848 172.204 123.315L207.047 134.151C211.47 135.527 215.279 138.395 217.822 142.267L227.392 156.833C231.09 162.461 237.373 165.851 244.107 165.851L255 165.851" stroke="#71F909" stroke-width="3"/>
<path d="M167.203 313.271L175.051 302.629C180.927 294.661 180.089 283.592 173.079 276.6L164.121 267.663C160.855 264.405 158.816 260.119 158.349 255.531L154.261 215.407C153.363 206.593 146.773 199.42 138.066 197.78L71.6422 185.269C67.9589 184.576 64.5446 182.861 61.7887 180.321L41.0289 161.185C37.3356 157.78 32.4966 155.89 27.4736 155.89L1.00003 155.89" stroke="#71F909" stroke-width="3"/>
<path d="M127.428 1.4978L117.842 22.9349C115.159 28.9352 115.595 35.8708 119.009 41.4875L131.103 61.3824C132.788 64.1559 133.774 67.2981 133.974 70.5376L137.673 130.415C138.185 138.706 143.77 145.818 151.703 148.282L198.264 162.744C202.686 164.118 206.495 166.983 209.04 170.852L222.758 191.705C226.457 197.328 232.736 200.713 239.467 200.713L255 200.713" stroke="#71F909" stroke-width="3"/>
<path d="M0.999999 105.712L4.88637 108.317C12.532 113.441 22.6877 112.686 29.4913 106.487L30.9853 105.126C34.1997 102.197 38.281 100.396 42.611 99.9951L64.0297 98.0117C72.7859 97.2009 79.9852 90.7658 81.7695 82.1551L88.8081 48.1888C89.6094 44.3218 91.5376 40.7786 94.3497 38.0058L103.615 28.87C107.427 25.1115 109.573 19.9818 109.573 14.6288L109.573 1.4978" stroke="#71F909" stroke-width="3"/>
<path d="M203.139 313.271L214.88 297.363C220.763 289.392 219.924 278.315 212.907 271.321L198.303 256.765C195.035 253.507 192.993 249.22 192.525 244.629L187.072 191.151C186.174 182.336 179.582 175.163 170.874 173.525L85.6949 157.495C82.0132 156.802 78.6002 155.089 75.8446 152.551L48.4406 127.312C44.748 123.912 39.9115 122.024 34.8915 122.024L1.00003 122.024" stroke="#71F909" stroke-width="3"/>
<circle cx="102.6" cy="119.035" r="45.3157" transform="rotate(90 102.6 119.035)" fill="white" stroke="#71F909" stroke-width="3"/>
<circle cx="222.627" cy="244.043" r="12.9431" transform="rotate(90 222.627 244.043)" fill="white" stroke="#71F909" stroke-width="3"/>
<circle cx="22.4157" cy="265.957" r="12.9431" transform="rotate(90 22.4157 265.957)" fill="white" stroke="#71F909" stroke-width="3"/>
</svg>
