<svg id="Capa_1" enable-background="new 0 0 512.001 512.001" height="512" viewBox="0 0 512.001 512.001" width="512" xmlns="http://www.w3.org/2000/svg"><g><g><path d="m240.997 77.95h30v96.365h-30z" fill="#bc6829"/></g><path d="m255.997 77.95h15v96.365h-15z" fill="#b04617"/><path d="m381.897 0h-65.65c-24.619 0-46.513 11.884-60.25 30.216-13.737-18.332-35.631-30.216-60.25-30.216h-65.65c-8.284 0-15 6.716-15 15v2.7c0 41.493 33.757 75.25 75.25 75.25h131.301c41.493 0 75.25-33.757 75.25-75.25v-2.7c-.001-8.284-6.716-15-15.001-15z" fill="#7cf55b"/><path d="m321.647 92.95c41.493 0 75.25-33.757 75.25-75.25v-2.7c0-8.284-6.716-15-15-15h-65.65c-24.619 0-46.513 11.884-60.25 30.216v62.734z" fill="#63e340"/><path d="m405.607 145.825c-24.369-15.421-53.674-22.245-82.502-19.214-29.271 3.077-56.872 16.254-77.717 37.104-.761.761-195.975 62.764-195.975 62.764-2.107 9.346-3.177 18.938-3.177 28.511 0 34.476 13.429 66.892 37.813 91.276l161.34 161.34c.028.028 21.598-.385 21.598-.385l160.955-160.955c21.009-21.008 34.205-48.831 37.159-78.343z" fill="#96e8ff"/><path d="m323.105 126.611c-24.544 2.58-47.911 12.265-67.108 27.617v353.2c5.463-.101 10.992-.207 10.992-.207l160.955-160.955c21.009-21.008 34.205-48.831 37.159-78.343l-59.495-122.099c-24.37-15.42-53.674-22.244-82.503-19.213z" fill="#19cffc"/><path d="m296.412 312.184c-4.104-1.865-5.583-6.458-7.538-16.726-1.611-8.459-3.616-18.986-13.188-24.335-4.074-2.276-10.913-4.236-20.36-.643-39.83 15.147-57.822 14.218-59.996 14.029-1.386-.333-2.748-.449-4.065-.377-17.712-1.509-29.389-7.282-32.967-16.391-2.768-7.042-.177-13.981 1.318-15.553 5.549-5.831 12.808-11.121 28.809-.014 8.132 5.655 18.737 6.54 27.68 2.31 9.021-4.27 14.878-12.759 15.667-22.708 1.206-15.203 9.45-22.358 19.889-31.418 6.053-5.253 12.312-10.686 16.965-17.94 3.806-5.935 2.965-13.719-2.021-18.704-24.385-24.385-56.801-37.814-91.276-37.814-34.477 0-66.893 13.429-91.276 37.813-17.308 17.307-29.285 39.013-34.637 62.77-.341 1.513-.445 3.07-.31 4.615 2.602 29.497 14.435 52.068 35.171 67.085 21.863 15.834 49.55 19.826 71.919 19.825 5.151 0 10.015-.214 14.465-.541-7.123 26.981-5.255 49.439 5.62 66.97 11.025 17.774 28.557 25.619 40.726 29.046 3.063 54.389 25.323 89.978 26.338 91.571 2.805 4.406 7.622 6.947 12.654 6.947 1.395 0 2.806-.195 4.194-.6 6.403-1.865 10.806-7.732 10.806-14.401 0-38.316 16.526-56.747 32.509-74.57 10.007-11.159 20.354-22.698 24.811-37.967 0-.001.001-.003.001-.004 10.003-34.318-.431-57.959-31.908-72.275z" fill="#63e340"/><g><path d="m410.197 324.271c-13.043 0-25.118-8.598-34.038-24.246-19.241-33.757-22.767-97.552 8.601-149.292 2.088-3.443 5.472-5.903 9.392-6.825 3.916-.923 8.044-.23 11.449 1.921 8.043 5.083 15.561 11.101 22.344 17.885 27.496 27.485 41.045 65.458 37.168 104.18h-.001c-.093.917-.27 1.824-.526 2.708-.541 1.904-4.028 13.594-11.338 25.48-14.19 23.074-31.076 28.064-42.742 28.187-.104.002-.207.002-.309.002z" fill="#1ac776"/></g><g fill="#1ac776"><path d="m296.412 312.184c-4.104-1.865-5.583-6.458-7.538-16.726-1.611-8.459-3.616-18.986-13.188-24.335-3.976-2.221-10.592-4.126-19.688-.878v241.757c1.395 0 2.806-.195 4.194-.6 6.403-1.865 10.806-7.732 10.806-14.401 0-38.316 16.526-56.747 32.509-74.57 10.007-11.159 20.354-22.698 24.811-37.967 0-.001.001-.003.001-.004 10.004-34.319-.43-57.96-31.907-72.276z"/><path d="m268.624 182.418c3.806-5.935 2.965-13.719-2.021-18.704-3.384-3.384-6.929-6.55-10.606-9.505v42.339c4.607-4.138 9.083-8.604 12.627-14.13z"/></g></g></svg>