<svg id="Filled" height="512" viewBox="0 0 512 512" width="512" xmlns="http://www.w3.org/2000/svg"><circle cx="256" cy="256" fill="#3397e8" r="232"/><g fill="#88c791"><path d="m248 232a16 16 0 0 1 -16 16h-64v16a16 16 0 0 1 -16 16h-16a16 16 0 0 0 0 32h56a16 16 0 0 1 0 32h-150.72a232.959 232.959 0 0 1 -5.89-160h148.61a16 16 0 0 1 16 16v16h32a15.979 15.979 0 0 1 16 16z"/><path d="m488 256a233.268 233.268 0 0 1 -3.44 40h-124.56a16 16 0 0 1 -16-16v-16h-32a16 16 0 0 1 0-32h32a16 16 0 0 0 0-32h-8a16 16 0 0 1 0-32h134.72a231.2 231.2 0 0 1 17.28 88z"/><path d="m360 48.57v23.43a16 16 0 0 1 -16 16h-16v16a16 16 0 0 1 -16 16h-48a16 16 0 1 1 0-32 16 16 0 0 0 0-32h-32a16 16 0 0 1 -8.12-29.79 232.871 232.871 0 0 1 136.12 22.36z"/><path d="m476.61 328a232.2 232.2 0 0 1 -60.6 96h-64.01a16 16 0 0 1 0-32h32a16 16 0 1 0 0-32 16 16 0 1 1 0-32z"/><path d="m240 440h-32a16 16 0 0 1 -16-16 16 16 0 0 1 16-16h32a16 16 0 0 1 16 16 16 16 0 0 1 -16 16z"/><path d="m192 152h-32a16 16 0 0 1 -16-16 16 16 0 0 1 16-16h32a16 16 0 0 1 16 16 16 16 0 0 1 -16 16z"/></g><path d="m112 144a48 48 0 1 0 -72 41.563l5.349 25.7a16 16 0 0 0 15.664 12.737h5.974a16 16 0 0 0 15.664-12.74l5.349-25.697a47.97 47.97 0 0 0 24-41.563z" fill="#eb423f"/><circle cx="64" cy="144" fill="#a82a27" r="16"/><path d="m488 184a48 48 0 1 0 -72 41.563l5.348 25.7a16 16 0 0 0 15.665 12.737h5.974a16 16 0 0 0 15.664-12.74l5.349-25.7a47.97 47.97 0 0 0 24-41.56z" fill="#eb423f"/><circle cx="440" cy="184" fill="#a82a27" r="16"/><path d="m272 328a48 48 0 1 0 -72 41.563l5.348 25.7a16 16 0 0 0 15.665 12.737h5.974a16 16 0 0 0 15.664-12.74l5.349-25.7a47.97 47.97 0 0 0 24-41.56z" fill="#eb423f"/><circle cx="224" cy="328" fill="#a82a27" r="16"/><path d="m192 112h-32a24 24 0 0 0 0 48h32a24 24 0 0 0 0-48zm0 32h-32a8 8 0 0 1 0-16h32a8 8 0 0 1 0 16z"/><path d="m64 168a24 24 0 1 0 -24-24 24.027 24.027 0 0 0 24 24zm0-32a8 8 0 1 1 -8 8 8.009 8.009 0 0 1 8-8z"/><path d="m478.829 143.647a55.918 55.918 0 0 0 -17.119-11.29 239.982 239.982 0 0 0 -379.866-41.463 56.18 56.18 0 0 0 -20.036-2.852c-28.445 1.09-52.037 24.188-53.708 52.585a55.779 55.779 0 0 0 18.4 44.963 240 240 0 1 0 464.493 21.459 55.854 55.854 0 0 0 -12.165-63.4zm-1.095 144.353h-117.734a8.009 8.009 0 0 1 -8-8v-16a8 8 0 0 0 -8-8h-32a8 8 0 0 1 0-16h32a24 24 0 0 0 0-48h-8a8 8 0 0 1 0-16h48.582c-.221 1.526-.391 3.067-.482 4.627a55.787 55.787 0 0 0 24.764 49.913l4.653 22.35a24.1 24.1 0 0 0 23.5 19.11h5.974a24.1 24.1 0 0 0 23.5-19.109l4.654-22.356a55.96 55.96 0 0 0 6.742-5.354 226.039 226.039 0 0 1 -.153 62.819zm2.266-104a40.151 40.151 0 0 1 -20.007 34.638 8 8 0 0 0 -3.825 5.294l-5.349 25.7a8.032 8.032 0 0 1 -7.832 6.368h-5.974a8.032 8.032 0 0 1 -7.832-6.37l-5.349-25.7a8 8 0 0 0 -3.825-5.294 40 40 0 0 1 18.413-74.606c.531-.02 1.059-.03 1.589-.03a40 40 0 0 1 39.991 40zm-128-130.433v18.433a8.009 8.009 0 0 1 -8 8h-16a8 8 0 0 0 -8 8v16a8.009 8.009 0 0 1 -8 8h-48a8 8 0 1 1 0-16 24 24 0 0 0 0-48h-32a8.009 8.009 0 0 1 -8-8 7.911 7.911 0 0 1 2.817-6.083 224.137 224.137 0 0 1 125.183 19.65zm-327.928 88a40.278 40.278 0 0 1 38.348-37.537c.532-.02 1.06-.03 1.589-.03a40 40 0 0 1 39.991 40 40.154 40.154 0 0 1 -20.007 34.638 8 8 0 0 0 -3.825 5.294l-5.349 25.7a8.033 8.033 0 0 1 -7.832 6.368h-5.974a8.033 8.033 0 0 1 -7.832-6.37l-5.349-25.7a8 8 0 0 0 -3.825-5.294 39.893 39.893 0 0 1 -19.935-37.068zm12.754 68.006.691 3.316a24.1 24.1 0 0 0 23.496 19.111h5.974a24.1 24.1 0 0 0 23.5-19.109l4.345-20.891h89.168a8.009 8.009 0 0 1 8 8v16a8 8 0 0 0 8 8h32a8 8 0 0 1 0 16h-64a8 8 0 0 0 -8 8v16a8.009 8.009 0 0 1 -8 8h-16a24 24 0 0 0 0 48h32.582c-.222 1.526-.391 3.067-.483 4.627a56.882 56.882 0 0 0 .47 11.373h-121.916a225.715 225.715 0 0 1 -9.827-126.426zm60.782 204.819a224.191 224.191 0 0 1 -44.12-62.392h119.889a55.818 55.818 0 0 0 19.487 22.54l4.653 22.35a23.708 23.708 0 0 0 1.581 4.829 24 24 0 0 0 8.902 46.281h32a24 24 0 0 0 8.9-46.281 23.658 23.658 0 0 0 1.581-4.828l4.654-22.356a56.213 56.213 0 0 0 24.865-46.535 56 56 0 0 0 -58.192-55.958 56.48 56.48 0 0 0 -48.321 31.958h-37.487a8 8 0 1 1 0-16h16a24.028 24.028 0 0 0 24-24v-8h56a24 24 0 1 0 0-48h-24v-8a24.028 24.028 0 0 0 -24-24h-74.093a55.905 55.905 0 0 0 -7.078-72.353 56.945 56.945 0 0 0 -6.121-5.105 224.021 224.021 0 0 1 111.471-61.381 23.7 23.7 0 0 0 -.179 2.839 24.027 24.027 0 0 0 24 24h32a8 8 0 1 1 0 16 24 24 0 1 0 0 48h48a24.028 24.028 0 0 0 24-24v-8h8a24.028 24.028 0 0 0 24-24v-10.028c.261.151.524.3.784.449a225.424 225.424 0 0 1 71.042 65.594c-.672 0-1.344 0-2.019.027a56.481 56.481 0 0 0 -48.321 31.958h-53.486a24 24 0 1 0 0 48h8a8 8 0 0 1 0 16h-32a24 24 0 1 0 0 48h24v8a24.028 24.028 0 0 0 24 24h114.863q-1.758 8.091-4.1 16h-86.763a24 24 0 1 0 0 48 8 8 0 0 1 0 16h-32a24 24 0 0 0 0 48h42.6a224.042 224.042 0 0 1 -296.992-17.608zm110.392 1.608h32a8 8 0 0 1 0 16h-32a8 8 0 0 1 0-16zm32.168-48.068-5.349 25.7a8.033 8.033 0 0 1 -7.832 6.37h-5.974a8.033 8.033 0 0 1 -7.832-6.37l-5.349-25.7a8 8 0 0 0 -3.825-5.294 40 40 0 0 1 18.413-74.608c.532-.02 1.06-.03 1.589-.03a40 40 0 0 1 39.991 40 40.154 40.154 0 0 1 -20.007 34.638 8 8 0 0 0 -3.825 5.294zm174.224 46.46c-.544.544-1.1 1.071-1.648 1.608h-60.744a8 8 0 0 1 0-16h32a24 24 0 1 0 0-48 8 8 0 1 1 0-16h81.348a223.414 223.414 0 0 1 -50.956 78.392z"/><path d="m416 184a24 24 0 1 0 24-24 24.027 24.027 0 0 0 -24 24zm32 0a8 8 0 1 1 -8-8 8.009 8.009 0 0 1 8 8z"/><path d="m224 304a24 24 0 1 0 24 24 24.027 24.027 0 0 0 -24-24zm0 32a8 8 0 1 1 8-8 8.009 8.009 0 0 1 -8 8z"/></svg>