<svg width="46" height="46" viewBox="0 0 46 46" fill="none" xmlns="http://www.w3.org/2000/svg">
<g filter="url(#filter0_d)">
<circle cx="23" cy="19" r="19" fill="white"/>
</g>
<path d="M17 14H15C15 17.875 18.125 21 22 21V25.5C22 25.7812 22.2188 26 22.5 26H23.5C23.75 26 24 25.7812 24 25.5V21C24 17.1562 20.8438 14 17 14ZM29 12C26.3438 12 24.0625 13.4688 22.875 15.625C23.75 16.5625 24.375 17.7188 24.7188 18.9688C28.25 18.625 31 15.625 31 12H29Z" fill="#2F3542"/>
<defs>
<filter id="filter0_d" x="0" y="0" width="46" height="46" filterUnits="userSpaceOnUse" color-interpolation-filters="sRGB">
<feFlood flood-opacity="0" result="BackgroundImageFix"/>
<feColorMatrix in="SourceAlpha" type="matrix" values="0 0 0 0 0 0 0 0 0 0 0 0 0 0 0 0 0 0 127 0"/>
<feOffset dy="4"/>
<feGaussianBlur stdDeviation="2"/>
<feColorMatrix type="matrix" values="0 0 0 0 0 0 0 0 0 0 0 0 0 0 0 0 0 0 0.25 0"/>
<feBlend mode="normal" in2="BackgroundImageFix" result="effect1_dropShadow"/>
<feBlend mode="normal" in="SourceGraphic" in2="effect1_dropShadow" result="shape"/>
</filter>
</defs>
</svg>
