<svg width="46" height="46" viewBox="0 0 46 46" fill="none" xmlns="http://www.w3.org/2000/svg">
<g filter="url(#filter0_d)">
<circle cx="23" cy="19" r="19" fill="white"/>
</g>
<path d="M23 18C20.5 18 17 21.8438 17 24.2812C17 25.375 17.8125 26 19.2188 26C20.75 26 21.75 25.2188 23 25.2188C24.2188 25.2188 25.2188 26 26.75 26C28.1562 26 29 25.375 29 24.2812C29 21.8438 25.4688 18 23 18ZM18.375 17.625C18.0625 16.5312 17.0625 15.8438 16.1562 16.0625C15.25 16.2812 14.75 17.3125 15.0938 18.4062C15.4062 19.5 16.4062 20.1875 17.3125 19.9688C18.2188 19.75 18.7188 18.7188 18.375 17.625ZM21.0312 16.9688C22 16.7188 22.4688 15.4062 22.125 14.0625C21.75 12.6875 20.6562 11.8125 19.6875 12.0625C18.7188 12.3125 18.25 13.625 18.5938 14.9688C18.9688 16.3438 20.0625 17.2188 21.0312 16.9688ZM29.8125 16.0625C28.9062 15.8438 27.9062 16.5312 27.5938 17.625C27.25 18.7188 27.75 19.75 28.6562 19.9688C29.5625 20.1875 30.5625 19.5 30.875 18.4062C31.2188 17.3125 30.7188 16.2812 29.8125 16.0625ZM24.9375 16.9688C25.9062 17.2188 27 16.3438 27.375 14.9688C27.7188 13.625 27.25 12.3125 26.2812 12.0625C25.3125 11.8125 24.2188 12.6875 23.8438 14.0625C23.5 15.4062 23.9688 16.7188 24.9375 16.9688Z" fill="#2F3542"/>
<defs>
<filter id="filter0_d" x="0" y="0" width="46" height="46" filterUnits="userSpaceOnUse" color-interpolation-filters="sRGB">
<feFlood flood-opacity="0" result="BackgroundImageFix"/>
<feColorMatrix in="SourceAlpha" type="matrix" values="0 0 0 0 0 0 0 0 0 0 0 0 0 0 0 0 0 0 127 0"/>
<feOffset dy="4"/>
<feGaussianBlur stdDeviation="2"/>
<feColorMatrix type="matrix" values="0 0 0 0 0 0 0 0 0 0 0 0 0 0 0 0 0 0 0.25 0"/>
<feBlend mode="normal" in2="BackgroundImageFix" result="effect1_dropShadow"/>
<feBlend mode="normal" in="SourceGraphic" in2="effect1_dropShadow" result="shape"/>
</filter>
</defs>
</svg>
