<svg width="24" height="24" viewBox="0 0 24 24" fill="none" xmlns="http://www.w3.org/2000/svg"><path d="M21 2.25H3c-.8284 0-1.5.6716-1.5 1.5v16.5c0 .8284.6716 1.5 1.5 1.5h18c.8284 0 1.5-.6716 1.5-1.5V3.75c0-.8284-.6716-1.5-1.5-1.5zM1.5 6.75h21" stroke="#367560" stroke-width="1.5" stroke-linecap="round" stroke-linejoin="round"/><path d="M18.75 9.75H5.25a.75.75 0 0 0-.75.75V12a.75.75 0 0 0 .75.75h13.5a.75.75 0 0 0 .75-.75v-1.5a.75.75 0 0 0-.75-.75zM8.25 15.75h-3a.75.75 0 0 0-.75.75V18a.75.75 0 0 0 .75.75h3A.75.75 0 0 0 9 18v-1.5a.75.75 0 0 0-.75-.75zM12 15.75h7.5M12 18.75h7.5" stroke="#367560" stroke-width="1.5" stroke-linecap="round" stroke-linejoin="round"/></svg>