<svg width="24" height="24" viewBox="0 0 24 24" fill="none" xmlns="http://www.w3.org/2000/svg"><g clip-path="url(#clip0)" stroke="#367560" stroke-width="1.5" stroke-linecap="round" stroke-linejoin="round"><path d="M7.374 1.084a.75.75 0 0 0-1.248 0L2.25 7.5H4.5l-2.9 4.1279a.75.75 0 0 0 .65 1.122h9a.75.75 0 0 0 .651-1.122L9 7.4999h2.25L7.374 1.084zM6.75 12.75v4.582M19.262 1.023a.6136.6136 0 0 0-.5105-.2728.6137.6137 0 0 0-.5105.2729L15.069 6h1.841l-2.578 3.582a.6133.6133 0 0 0 .533.918h7.77a.614.614 0 0 0 .3066-.0814.6139.6139 0 0 0 .3077-.53.6141.6141 0 0 0-.0813-.3066L20.592 6h1.841l-3.171-4.977zM18.751 10.5v4.035M.805 17.9999a13.5175 13.5175 0 0 1 15.6731 5.254"/><path d="M10.969 18.518A15.7 15.7 0 0 1 21.75 14.25c.506 0 1.006.0233 1.5.07"/></g><defs><clipPath id="clip0"><path fill="#fff" d="M0 0h24v24H0z"/></clipPath></defs></svg>