<svg width="10" height="10" viewBox="0 0 16 16" fill="none" xmlns="http://www.w3.org/2000/svg">
<path opacity="0.5" d="M12 10.5C10.7188 10.5 10.5 10.4688 9.71875 10.7188C9.1875 10.9062 8.59375 11 8 11C7.375 11 6.78125 10.9062 6.25 10.7188C5.46875 10.4688 5.25 10.5 4 10.5C1.78125 10.5 0 12.3125 0 14.5V15C0 15.5625 0.4375 16 1 16H15C15.5312 16 16 15.5625 16 15V14.5C16 12.3125 14.1875 10.5 12 10.5ZM14.5 14.5H1.5C1.5 13.8438 1.75 13.2188 2.21875 12.75C2.6875 12.2812 3.3125 12 4 12C5.28125 12 5.28125 11.9688 5.75 12.1562C6.46875 12.375 7.21875 12.5 8 12.5C8.75 12.5 9.5 12.375 10.2188 12.1562C10.7188 11.9688 10.6875 12 12 12C13.375 12 14.5 13.125 14.5 14.5ZM8 10C10.75 10 13 7.78125 13 5C13 2.25 10.75 0 8 0C5.21875 0 3 2.25 3 5C3 7.78125 5.21875 10 8 10ZM8 1.5C9.90625 1.5 11.5 3.09375 11.5 5C11.5 6.9375 9.90625 8.5 8 8.5C6.0625 8.5 4.5 6.9375 4.5 5C4.5 3.09375 6.0625 1.5 8 1.5Z" fill="#2F3542"/>
</svg>
